<svg width="134" height="244" viewBox="0 0 134 244" fill="none" xmlns="http://www.w3.org/2000/svg">
<path d="M0.297969 227.898L37.4214 243.872L32.6939 203.735L0.297969 227.898ZM93.4113 3.7718C95.8909 7.99605 98.3609 12.503 100.771 17.2446L107.011 14.0732C104.538 9.20719 102 4.57607 99.4481 0.228197L93.4113 3.7718ZM113.092 45.3639C116.599 54.8133 119.637 64.6867 121.947 74.7324L128.769 73.1635C126.384 62.7921 123.255 52.6286 119.655 42.9284L113.092 45.3639ZM126.425 104.929C127.042 115.201 126.647 125.363 124.987 135.165L131.889 136.333C133.65 125.931 134.056 115.229 133.412 104.509L126.425 104.929ZM115.751 163.659C111.372 172.263 105.531 180.317 97.9664 187.594L102.819 192.639C110.959 184.81 117.263 176.12 121.99 166.835L115.751 163.659ZM73.4992 205.003C65.2794 209.332 55.9115 213.108 45.2725 216.213L47.2335 222.932C58.2759 219.71 68.0854 215.766 76.7612 211.197L73.4992 205.003Z" fill="#508F21"/>
</svg>
