<svg width="233" height="190" viewBox="0 0 233 190" fill="none" xmlns="http://www.w3.org/2000/svg">
<path d="M207.177 189.981L232.301 158.325L192.324 152.394L207.177 189.981ZM2.22475 15.2243C6.58378 14.1573 11.1582 13.1684 15.907 12.2822L14.6228 5.40099C9.74837 6.31068 5.04718 7.32679 0.560407 8.42508L2.22475 15.2243ZM43.7533 8.57565C52.8861 7.83958 62.3041 7.55164 71.7924 7.83688L72.0028 0.840041C62.2364 0.54644 52.5596 0.843191 43.191 1.59828L43.7533 8.57565ZM99.6436 10.4374C108.876 11.9335 117.959 14.0954 126.696 17.0351L128.928 10.4006C119.787 7.32494 110.328 5.0775 100.763 3.52752L99.6436 10.4374ZM151.904 28.436C159.781 33.0839 167.109 38.6309 173.696 45.1936L178.637 40.2348C171.605 33.2286 163.804 27.3298 155.461 22.4072L151.904 28.436ZM190.411 66.9386C194.777 74.4677 198.454 82.8851 201.301 92.2814L208.001 90.2515C205.004 80.3606 201.115 71.4435 196.467 63.4273L190.411 66.9386ZM206.793 119.451C207.777 128.103 208.188 137.391 207.96 147.356L214.958 147.516C215.193 137.26 214.771 127.653 213.748 118.661L206.793 119.451Z" fill="#508F21"/>
</svg>
