<svg width="1172" height="44" viewBox="0 0 1172 44" fill="none" xmlns="http://www.w3.org/2000/svg">
<path d="M0.666666 22C0.666666 33.7821 10.2179 43.3333 22 43.3333C33.7821 43.3333 43.3333 33.7821 43.3333 22C43.3333 10.2179 33.7821 0.666666 22 0.666666C10.2179 0.666666 0.666666 10.2179 0.666666 22ZM1129.17 22C1129.17 33.7821 1138.72 43.3333 1150.5 43.3333C1162.28 43.3333 1171.83 33.7821 1171.83 22C1171.83 10.2179 1162.28 0.666666 1150.5 0.666666C1138.72 0.666666 1129.17 10.2179 1129.17 22ZM22 26H30.0607V18H22V26ZM62.3036 26H110.668V18H62.3036V26ZM175.154 26H191.275V18H175.154V26ZM223.518 26H271.882V18H223.518V26ZM336.368 26H352.489V18H336.368V26ZM384.732 26H433.096V18H384.732V26ZM497.582 26H513.704V18H497.582V26ZM545.946 26H594.311V18H545.946V26ZM658.796 26H674.918V18H658.796V26ZM707.161 26H755.525V18H707.161V26ZM820.011 26H836.132V18H820.011V26ZM868.375 26H916.739V18H868.375V26ZM981.225 26H997.346V18H981.225V26ZM1029.59 26H1077.95V18H1029.59V26ZM1142.44 26H1150.5V18H1142.44V26ZM0.666666 22C0.666666 33.7821 10.2179 43.3333 22 43.3333C33.7821 43.3333 43.3333 33.7821 43.3333 22C43.3333 10.2179 33.7821 0.666666 22 0.666666C10.2179 0.666666 0.666666 10.2179 0.666666 22ZM1129.17 22C1129.17 33.7821 1138.72 43.3333 1150.5 43.3333C1162.28 43.3333 1171.83 33.7821 1171.83 22C1171.83 10.2179 1162.28 0.666666 1150.5 0.666666C1138.72 0.666666 1129.17 10.2179 1129.17 22ZM22 26H30.0607V18H22V26ZM62.3036 26H110.668V18H62.3036V26ZM175.154 26H191.275V18H175.154V26ZM223.518 26H271.882V18H223.518V26ZM336.368 26H352.489V18H336.368V26ZM384.732 26H433.096V18H384.732V26ZM497.582 26H513.704V18H497.582V26ZM545.946 26H594.311V18H545.946V26ZM658.796 26H674.918V18H658.796V26ZM707.161 26H755.525V18H707.161V26ZM820.011 26H836.132V18H820.011V26ZM868.375 26H916.739V18H868.375V26ZM981.225 26H997.346V18H981.225V26ZM1029.59 26H1077.95V18H1029.59V26ZM1142.44 26H1150.5V18H1142.44V26Z" fill="#508F21"/>
</svg>
