<svg width="715" height="93" viewBox="0 0 715 93" fill="none" xmlns="http://www.w3.org/2000/svg">
<path d="M714.992 0.97539C714.992 0.97539 626.876 22.5425 567.467 24.4556C478.708 27.3139 431.798 -0.141294 342.749 0.97539C268.165 1.91069 230.267 32.1501 155.77 30.527C97.5292 29.258 28.8303 -1.50628 11.6762 0.97539C-5.47784 3.45706 -2.04706 11.2355 11.6762 21.9375C25.3994 32.6395 98.6378 46.2162 155.77 46.8948C229.634 47.7721 268.848 21.7759 342.749 21.9375C432.31 22.1333 478.16 45.819 567.467 43.3417C626.883 41.6935 714.992 24.4556 714.992 24.4556V0.97539Z" fill="white"/>
<path d="M714.939 47.0589C714.939 47.0589 626.823 68.626 567.415 70.5391C478.656 73.3974 431.745 45.9422 342.697 47.0589C268.112 47.9942 230.214 78.2336 155.717 76.6105C97.4765 75.3415 28.7775 44.5772 11.6235 47.0589C-5.53058 49.5406 -2.09979 57.319 11.6235 68.021C25.3467 78.723 98.585 92.2997 155.717 92.9783C229.581 93.8556 268.795 67.8594 342.697 68.021C432.257 68.2168 478.107 91.9025 567.415 89.4252C626.831 87.777 714.939 70.5391 714.939 70.5391V47.0589Z" fill="white"/>
</svg>
