<svg width="58" height="25" viewBox="0 0 58 25" fill="none" xmlns="http://www.w3.org/2000/svg">
<path d="M57.1174 0.131554L57.1625 24.5218L0.0449964 24.6273L12.6498 12.6115L0.0360217 0.105506L57.1174 0.131554Z" fill="url(#paint0_linear_3181_789)"/>
<path d="M32.8586 9.44149C32.8666 9.51349 32.8706 9.70949 32.8706 10.0295C32.8706 10.3495 32.8146 10.7095 32.7026 11.1095L32.1026 11.1815C32.0466 10.4455 31.9506 10.0295 31.8146 9.93349C31.6626 9.83749 31.4266 9.78149 31.1066 9.76549V11.8775C32.0986 12.2935 32.6986 12.7135 32.9066 13.1375C33.0106 13.3535 33.0626 13.5935 33.0626 13.8575C33.0626 14.3375 32.8866 14.7575 32.5346 15.1175C32.1906 15.4695 31.7146 15.6935 31.1066 15.7895V17.2655H30.4226V15.8375C29.6626 15.8215 29.0466 15.7135 28.5746 15.5135C28.5586 15.3935 28.5506 15.1775 28.5506 14.8655C28.5506 14.5535 28.5866 14.1375 28.6586 13.6175L29.3426 13.5575C29.4146 14.1735 29.4666 14.5495 29.4986 14.6855C29.5306 14.8135 29.5826 14.8975 29.6546 14.9375C29.8226 15.0415 30.0786 15.1175 30.4226 15.1655V12.9335C29.5026 12.5495 28.9386 12.1375 28.7306 11.6975C28.6266 11.4975 28.5746 11.2655 28.5746 11.0015C28.5746 10.5295 28.7386 10.1295 29.0666 9.80149C29.4026 9.47349 29.8546 9.26149 30.4226 9.16549V7.71349H31.1066V9.10549C31.7066 9.11349 32.2906 9.22549 32.8586 9.44149ZM30.4226 9.77749C29.8306 9.83349 29.5346 10.1015 29.5346 10.5815C29.5346 10.9735 29.8306 11.3055 30.4226 11.5775V9.77749ZM31.1066 15.1775C31.3866 15.1535 31.6066 15.0655 31.7666 14.9135C31.9346 14.7615 32.0186 14.5575 32.0186 14.3015C32.0186 13.9015 31.7146 13.5455 31.1066 13.2335V15.1775ZM34.0283 15.1895L33.7523 14.4575L37.5563 9.32149C38.0043 9.21749 38.3483 9.16549 38.5883 9.16549L38.7203 9.28549V14.4935L39.9443 14.5175L39.8363 15.2015H38.7203V17.1935C38.4643 17.2415 38.1483 17.2655 37.7723 17.2655L37.6403 17.1455V15.2015H34.0403L34.0283 15.1895ZM34.6043 14.3495L34.6523 14.4335L37.6403 14.4815V10.7255C37.6403 10.5575 37.6483 10.4375 37.6643 10.3655L37.5923 10.3295L34.8203 14.0855C34.7563 14.1815 34.6843 14.2695 34.6043 14.3495ZM40.7504 9.78949C40.7504 9.14949 40.9784 8.62549 41.4344 8.21749C41.8904 7.80949 42.4744 7.60549 43.1864 7.60549C43.6584 7.60549 44.1544 7.72149 44.6744 7.95349C44.9464 8.08149 45.1704 8.27749 45.3464 8.54149C45.5224 8.80549 45.6104 9.12149 45.6104 9.48949C45.6104 10.2095 45.2984 10.8015 44.6744 11.2655C44.4904 11.3935 44.3424 11.4575 44.2304 11.4575V11.5655C44.2784 11.5655 44.3424 11.5855 44.4224 11.6255C44.9024 11.8735 45.2704 12.1495 45.5264 12.4535C45.7824 12.7575 45.9104 13.1375 45.9104 13.5935C45.9104 14.2575 45.6504 14.7975 45.1304 15.2135C44.6184 15.6295 43.9464 15.8375 43.1144 15.8375C42.5544 15.8375 42.0024 15.7295 41.4584 15.5135C41.1624 15.3935 40.9184 15.1975 40.7264 14.9255C40.5424 14.6535 40.4504 14.3255 40.4504 13.9415C40.4504 13.1655 40.8384 12.5175 41.6144 11.9975C41.8304 11.8695 41.9824 11.8055 42.0704 11.8055V11.6975C42.0224 11.6975 41.9584 11.6775 41.8784 11.6375C41.1264 11.1815 40.7504 10.5655 40.7504 9.78949ZM43.1024 8.20549C42.6624 8.20549 42.3344 8.34149 42.1184 8.61349C41.9024 8.88549 41.7944 9.16149 41.7944 9.44149C41.7944 9.72149 41.8384 9.94949 41.9264 10.1255C42.0224 10.2935 42.1704 10.4495 42.3704 10.5935C42.6984 10.8255 43.1064 11.0455 43.5944 11.2535C44.2664 10.7975 44.6024 10.2455 44.6024 9.59749C44.6024 9.14949 44.4624 8.80549 44.1824 8.56549C43.9104 8.32549 43.5504 8.20549 43.1024 8.20549ZM43.2104 15.1775C43.7464 15.1775 44.1424 15.0455 44.3984 14.7815C44.6544 14.5095 44.7824 14.2295 44.7824 13.9415C44.7824 13.6535 44.7304 13.4175 44.6264 13.2335C44.5224 13.0495 44.3584 12.8855 44.1344 12.7415C43.7904 12.5175 43.3624 12.3055 42.8504 12.1055C42.7944 12.0815 42.7544 12.0655 42.7304 12.0575C42.5944 12.1055 42.4064 12.2295 42.1664 12.4295C41.6944 12.8375 41.4584 13.2815 41.4584 13.7615C41.4584 14.2335 41.6184 14.5895 41.9384 14.8295C42.2584 15.0615 42.6824 15.1775 43.2104 15.1775Z" fill="white"/>
<defs>
<linearGradient id="paint0_linear_3181_789" x1="57.1398" y1="12.2609" x2="0.0223339" y2="12.3665" gradientUnits="userSpaceOnUse">
<stop offset="0.19" stop-color="#508F21"/>
<stop offset="1" stop-color="#BDE48F"/>
</linearGradient>
</defs>
</svg>
