<svg width="893" height="36" viewBox="0 0 893 36" fill="none" xmlns="http://www.w3.org/2000/svg">
<path d="M9 9C52.7654 9 52.7654 27 96.5308 27C140.296 27 140.296 9 184.062 9C227.827 9 227.827 27 271.49 27C315.257 27 315.257 9 358.918 9C402.684 9 402.684 27 446.346 27C490.112 27 490.112 9 533.875 9C577.642 9 577.642 27 621.408 27C665.171 27 665.171 9 708.938 9C752.704 9 752.704 27 796.47 27C840.234 27 840.234 9 884 9" stroke="#508F21" stroke-opacity="0.22" stroke-width="17" stroke-miterlimit="10" stroke-linecap="round"/>
</svg>
