<svg width="287" height="79" viewBox="0 0 287 79" fill="none" xmlns="http://www.w3.org/2000/svg">
<path d="M10 9C23.4047 9 23.4047 27 36.8094 27C50.2142 27 50.2142 9 63.6189 9C77.0236 9 77.0236 27 90.3969 27C103.802 27 103.802 9 117.175 9C130.58 9 130.58 27 143.953 27C157.358 27 157.358 9 170.762 9C184.167 9 184.167 27 197.572 27C210.976 27 210.976 9 224.381 9C237.786 9 237.786 27 251.191 27C264.595 27 264.595 9 278 9" stroke="#508F21" stroke-opacity="0.22" stroke-width="17" stroke-miterlimit="10" stroke-linecap="round"/>
<path d="M9 52C22.4047 52 22.4047 70 35.8094 70C49.2142 70 49.2142 52 62.6189 52C76.0236 52 76.0236 70 89.3969 70C102.802 70 102.802 52 116.175 52C129.58 52 129.58 70 142.953 70C156.358 70 156.358 52 169.762 52C183.167 52 183.167 70 196.572 70C209.976 70 209.976 52 223.381 52C236.786 52 236.786 70 250.191 70C263.595 70 263.595 52 277 52" stroke="#508F21" stroke-opacity="0.22" stroke-width="17" stroke-miterlimit="10" stroke-linecap="round"/>
</svg>
